<svg xmlns="http://www.w3.org/2000/svg" viewBox="0 0 180 60"><defs><style>.a{fill:#fff;}</style></defs><title>binokor</title><rect class="a" width="180" height="60"/><path d="M162.046,36.74,148.9,33.78l13.145-2.961V22.1L145.07,18.4l-.051-.011-17.025,3.7V45.764l16.848,3.564.177.039,17.028-3.6V36.74Zm-32.347-7.4v-5.87l15.32-3.333,12.46,2.71Zm0,7.017V31.091l30.642-7.162v5.526Zm27.809,1.11L129.7,43.893V38.1l15.321-3.45Zm2.833,1.1v5.819l-15.322,3.241-12.47-2.637Z"/><path d="M16.5,36.566c0-2.48-1.063-4.339-2.939-5.182a4.412,4.412,0,0,0,2.233-4.105c0-3.5-2.441-5.589-6.529-5.589H0V42.743H9.322C13.749,42.744,16.5,40.376,16.5,36.566ZM4.684,29.831V26.168H8.705c1.708,0,2.374.51,2.374,1.817,0,1.276-.7,1.846-2.256,1.846Zm7.072,6.383c0,1.066-.306,2.052-2.522,2.052H4.684v-4.1H9.2C11.338,34.161,11.756,34.914,11.756,36.214Z"/><rect x="20.143" y="26.099" width="4.683" height="16.645"/><path d="M22.5,24.081a2.727,2.727,0,1,0,0-5.447,2.727,2.727,0,1,0,0,5.447Z"/><path d="M38.529,25.747a5.977,5.977,0,0,0-4.784,2.1V26.1H29.06V42.744h4.685V34.009c0-2.511,1.144-3.785,3.4-3.785,1.954,0,2.788.912,2.788,3.05v9.47h4.683V32.364C44.618,28.282,42.285,25.747,38.529,25.747Z"/><path d="M56.336,25.747a8.567,8.567,0,0,0-8.645,8.674,8.66,8.66,0,1,0,17.32,0A8.484,8.484,0,0,0,56.336,25.747Zm3.933,8.673a3.941,3.941,0,1,1-7.865,0,3.941,3.941,0,1,1,7.865,0Z"/><polygon points="73.032 36.059 79.3 42.744 85.335 42.744 77.237 34.042 84.846 26.099 78.828 26.099 73.032 32.448 73.032 19.633 68.348 19.633 68.348 42.744 73.032 42.744 73.032 36.059"/><path d="M93.949,25.747A8.568,8.568,0,0,0,85.3,34.421a8.661,8.661,0,1,0,17.321,0A8.484,8.484,0,0,0,93.949,25.747Zm3.932,8.673a3.941,3.941,0,1,1-7.865,0,3.941,3.941,0,1,1,7.865,0Z"/><path d="M115.312,25.746a5.45,5.45,0,0,0-4.814,2.49V26.1h-4.684V42.744H110.5V35.3c0-3.155,1.59-4.755,4.726-4.755a7.964,7.964,0,0,1,.881.046l.388.036v-4.8l-.214-.024A8.675,8.675,0,0,0,115.312,25.746Z"/><path d="M169.117,15.973c.765,0,1.677-.328,1.677-1.888V10.669H169.7v3.366c0,.867-.274.935-.632.935a1.2,1.2,0,0,1-.427-.075l-.272-.106-.179.979.181.074A2.216,2.216,0,0,0,169.117,15.973Z"/><path d="M173.229,15.938a2.573,2.573,0,0,0,1.809-.512,1.515,1.515,0,0,0,.473-1.123,1.39,1.39,0,0,0-.689-1.224,1.285,1.285,0,0,0,.513-1.022,1.226,1.226,0,0,0-.483-1.025,2.2,2.2,0,0,0-1.454-.4,6.233,6.233,0,0,0-1.169.1l-.191.04v5.072l.207.029A7.261,7.261,0,0,0,173.229,15.938Zm-.1-2.317h.266c.368,0,.984.087.984.674,0,.564-.531.682-.977.682-.107,0-.2,0-.273-.005Zm1.1-1.5c0,.342-.3.555-.788.555h-.315V11.6c.086-.008.187-.011.3-.011C174.235,11.586,174.235,11.974,174.235,12.12Z"/><rect x="176.558" y="10.669" width="1.094" height="5.227"/></svg>